<svg width="158" height="40" viewBox="0 0 158 40" fill="none" xmlns="http://www.w3.org/2000/svg">
<rect width="158" height="40" rx="6" fill="#1A1A1A"/>
<rect x="0.5" y="0.5" width="157" height="39" rx="5.5" stroke="white" stroke-opacity="0.14"/>
<path d="M24.5753 18.1293H23.0241C22.9645 17.7978 22.8535 17.5062 22.6911 17.2543C22.5286 17.0024 22.3298 16.7886 22.0945 16.6129C21.8591 16.4373 21.5956 16.3047 21.304 16.2152C21.0156 16.1257 20.709 16.081 20.3842 16.081C19.7976 16.081 19.2723 16.2285 18.8082 16.5234C18.3475 16.8184 17.983 17.2509 17.7145 17.821C17.4493 18.3911 17.3168 19.0871 17.3168 19.9091C17.3168 20.7377 17.4493 21.437 17.7145 22.0071C17.983 22.5772 18.3492 23.008 18.8132 23.2997C19.2772 23.5914 19.7992 23.7372 20.3793 23.7372C20.7008 23.7372 21.0057 23.6941 21.294 23.608C21.5857 23.5185 21.8492 23.3875 22.0845 23.2152C22.3198 23.0429 22.5187 22.8324 22.6811 22.5838C22.8468 22.3319 22.9612 22.0436 23.0241 21.7188L24.5753 21.7237C24.4924 22.2242 24.3317 22.6849 24.093 23.1058C23.8577 23.5234 23.5545 23.8847 23.1832 24.1896C22.8153 24.4912 22.3944 24.7249 21.9205 24.8906C21.4465 25.0563 20.9295 25.1392 20.3693 25.1392C19.4877 25.1392 18.7022 24.9304 18.0128 24.5128C17.3234 24.0919 16.7798 23.4903 16.3821 22.7081C15.9877 21.9259 15.7905 20.9929 15.7905 19.9091C15.7905 18.822 15.9893 17.889 16.3871 17.1101C16.7848 16.3279 17.3284 15.728 18.0178 15.3104C18.7071 14.8894 19.491 14.679 20.3693 14.679C20.9096 14.679 21.4134 14.7569 21.8807 14.9126C22.3513 15.0651 22.7739 15.2905 23.1484 15.5888C23.523 15.8838 23.8329 16.245 24.0781 16.6726C24.3234 17.0968 24.4891 17.5824 24.5753 18.1293ZM27.7807 20.4659V25H26.2942V14.8182H27.7608V18.6065H27.8553C28.0343 18.1955 28.3077 17.8691 28.6756 17.6271C29.0435 17.3852 29.5241 17.2642 30.1174 17.2642C30.641 17.2642 31.0984 17.3719 31.4895 17.5874C31.8839 17.8028 32.1889 18.1243 32.4043 18.5518C32.623 18.9761 32.7324 19.5064 32.7324 20.1428V25H31.2459V20.3217C31.2459 19.7616 31.1017 19.3274 30.8134 19.0192C30.525 18.7076 30.124 18.5518 29.6103 18.5518C29.2589 18.5518 28.9441 18.6264 28.6657 18.7756C28.3906 18.9247 28.1735 19.1435 28.0144 19.4318C27.8586 19.7169 27.7807 20.0616 27.7807 20.4659ZM36.9384 25.169C36.4545 25.169 36.017 25.0795 35.6259 24.9006C35.2348 24.7183 34.9249 24.4548 34.6962 24.1101C34.4708 23.7654 34.3581 23.3428 34.3581 22.8423C34.3581 22.4115 34.441 22.0568 34.6067 21.7784C34.7724 21.5 34.9962 21.2796 35.2779 21.1172C35.5596 20.9548 35.8745 20.8321 36.2225 20.7493C36.5705 20.6664 36.9251 20.6035 37.2864 20.5604C37.7438 20.5073 38.115 20.4643 38.4 20.4311C38.6851 20.3946 38.8922 20.3366 39.0215 20.2571C39.1507 20.1776 39.2154 20.0483 39.2154 19.8693V19.8345C39.2154 19.4003 39.0927 19.0639 38.8475 18.8253C38.6055 18.5866 38.2443 18.4673 37.7637 18.4673C37.2632 18.4673 36.8688 18.5784 36.5804 18.8004C36.2954 19.0192 36.0982 19.2628 35.9888 19.5312L34.5918 19.2131C34.7575 18.7491 34.9995 18.3745 35.3176 18.0895C35.6391 17.8011 36.0087 17.5923 36.4263 17.4631C36.8439 17.3305 37.2831 17.2642 37.7438 17.2642C38.0487 17.2642 38.3719 17.3007 38.7132 17.3736C39.0579 17.4432 39.3794 17.5724 39.6777 17.7614C39.9793 17.9503 40.2263 18.2204 40.4185 18.5717C40.6107 18.9197 40.7069 19.3722 40.7069 19.929V25H39.2551V23.956H39.1955C39.0994 24.1482 38.9552 24.3371 38.763 24.5227C38.5707 24.7083 38.3238 24.8625 38.0222 24.9851C37.7206 25.1077 37.3593 25.169 36.9384 25.169ZM37.2615 23.9759C37.6725 23.9759 38.0239 23.8946 38.3155 23.7322C38.6105 23.5698 38.8342 23.3577 38.9867 23.0959C39.1425 22.8307 39.2203 22.5473 39.2203 22.2457V21.2614C39.1673 21.3144 39.0646 21.3641 38.9121 21.4105C38.763 21.4536 38.5923 21.4917 38.4 21.5249C38.2078 21.5547 38.0205 21.5829 37.8382 21.6094C37.656 21.6326 37.5035 21.6525 37.3809 21.669C37.0925 21.7055 36.829 21.7668 36.5904 21.853C36.3551 21.9392 36.1661 22.0634 36.0236 22.2259C35.8844 22.3849 35.8148 22.5971 35.8148 22.8622C35.8148 23.2301 35.9507 23.5085 36.2225 23.6974C36.4943 23.883 36.8406 23.9759 37.2615 23.9759ZM46.2514 17.3636V18.5568H42.0803V17.3636H46.2514ZM43.1989 15.5341H44.6854V22.7578C44.6854 23.0462 44.7285 23.2633 44.8146 23.4091C44.9008 23.5516 45.0118 23.6494 45.1477 23.7024C45.2869 23.7521 45.4377 23.777 45.6001 23.777C45.7195 23.777 45.8239 23.7687 45.9134 23.7521C46.0028 23.7356 46.0724 23.7223 46.1222 23.7124L46.3906 24.9403C46.3045 24.9735 46.1818 25.0066 46.0227 25.0398C45.8636 25.0762 45.6648 25.0961 45.4261 25.0994C45.035 25.1061 44.6705 25.0365 44.3324 24.8906C43.9943 24.7448 43.7209 24.5194 43.5121 24.2145C43.3033 23.9096 43.1989 23.5268 43.1989 23.0661V15.5341ZM53.2564 25L51.0092 17.3636H52.5455L54.0419 22.9716H54.1165L55.6179 17.3636H57.1541L58.6456 22.9467H58.7202L60.2067 17.3636H61.7429L59.5007 25H57.9844L56.4332 19.4865H56.3189L54.7678 25H53.2564ZM63.1536 25V17.3636H64.6401V25H63.1536ZM63.9043 16.1854C63.6458 16.1854 63.4237 16.0992 63.2381 15.9268C63.0558 15.7512 62.9647 15.5424 62.9647 15.3004C62.9647 15.0552 63.0558 14.8464 63.2381 14.674C63.4237 14.4983 63.6458 14.4105 63.9043 14.4105C64.1628 14.4105 64.3832 14.4983 64.5655 14.674C64.7511 14.8464 64.8439 15.0552 64.8439 15.3004C64.8439 15.5424 64.7511 15.7512 64.5655 15.9268C64.3832 16.0992 64.1628 16.1854 63.9043 16.1854ZM70.2045 17.3636V18.5568H66.0334V17.3636H70.2045ZM67.152 15.5341H68.6385V22.7578C68.6385 23.0462 68.6816 23.2633 68.7678 23.4091C68.8539 23.5516 68.965 23.6494 69.1009 23.7024C69.2401 23.7521 69.3909 23.777 69.5533 23.777C69.6726 23.777 69.777 23.7687 69.8665 23.7521C69.956 23.7356 70.0256 23.7223 70.0753 23.7124L70.3438 24.9403C70.2576 24.9735 70.1349 25.0066 69.9759 25.0398C69.8168 25.0762 69.6179 25.0961 69.3793 25.0994C68.9882 25.1061 68.6236 25.0365 68.2855 24.8906C67.9474 24.7448 67.674 24.5194 67.4652 24.2145C67.2564 23.9096 67.152 23.5268 67.152 23.0661V15.5341ZM73.4995 20.4659V25H72.013V14.8182H73.4796V18.6065H73.574C73.753 18.1955 74.0265 17.8691 74.3944 17.6271C74.7623 17.3852 75.2428 17.2642 75.8361 17.2642C76.3598 17.2642 76.8172 17.3719 77.2083 17.5874C77.6027 17.8028 77.9076 18.1243 78.123 18.5518C78.3418 18.9761 78.4512 19.5064 78.4512 20.1428V25H76.9647V20.3217C76.9647 19.7616 76.8205 19.3274 76.5321 19.0192C76.2438 18.7076 75.8427 18.5518 75.329 18.5518C74.9777 18.5518 74.6628 18.6264 74.3844 18.7756C74.1093 18.9247 73.8922 19.1435 73.7331 19.4318C73.5774 19.7169 73.4995 20.0616 73.4995 20.4659ZM87.7045 17.3636V18.5568H83.5334V17.3636H87.7045ZM84.652 15.5341H86.1385V22.7578C86.1385 23.0462 86.1816 23.2633 86.2678 23.4091C86.3539 23.5516 86.465 23.6494 86.6009 23.7024C86.7401 23.7521 86.8909 23.777 87.0533 23.777C87.1726 23.777 87.277 23.7687 87.3665 23.7521C87.456 23.7356 87.5256 23.7223 87.5753 23.7124L87.8438 24.9403C87.7576 24.9735 87.6349 25.0066 87.4759 25.0398C87.3168 25.0762 87.1179 25.0961 86.8793 25.0994C86.4882 25.1061 86.1236 25.0365 85.7855 24.8906C85.4474 24.7448 85.174 24.5194 84.9652 24.2145C84.7564 23.9096 84.652 23.5268 84.652 23.0661V15.5341ZM90.9995 20.4659V25H89.513V14.8182H90.9796V18.6065H91.074C91.253 18.1955 91.5265 17.8691 91.8944 17.6271C92.2623 17.3852 92.7428 17.2642 93.3361 17.2642C93.8598 17.2642 94.3172 17.3719 94.7083 17.5874C95.1027 17.8028 95.4076 18.1243 95.623 18.5518C95.8418 18.9761 95.9512 19.5064 95.9512 20.1428V25H94.4647V20.3217C94.4647 19.7616 94.3205 19.3274 94.0321 19.0192C93.7438 18.7076 93.3427 18.5518 92.829 18.5518C92.4777 18.5518 92.1628 18.6264 91.8844 18.7756C91.6093 18.9247 91.3922 19.1435 91.2331 19.4318C91.0774 19.7169 90.9995 20.0616 90.9995 20.4659ZM97.9348 25V17.3636H99.4213V25H97.9348ZM98.6855 16.1854C98.427 16.1854 98.205 16.0992 98.0194 15.9268C97.8371 15.7512 97.7459 15.5424 97.7459 15.3004C97.7459 15.0552 97.8371 14.8464 98.0194 14.674C98.205 14.4983 98.427 14.4105 98.6855 14.4105C98.9441 14.4105 99.1645 14.4983 99.3468 14.674C99.5324 14.8464 99.6252 15.0552 99.6252 15.3004C99.6252 15.5424 99.5324 15.7512 99.3468 15.9268C99.1645 16.0992 98.9441 16.1854 98.6855 16.1854ZM107.143 19.228L105.796 19.4666C105.74 19.2943 105.65 19.1302 105.528 18.9744C105.408 18.8187 105.246 18.6911 105.04 18.5916C104.835 18.4922 104.578 18.4425 104.27 18.4425C103.849 18.4425 103.498 18.5369 103.216 18.7259C102.934 18.9115 102.793 19.1518 102.793 19.4467C102.793 19.7019 102.888 19.9074 103.077 20.0632C103.266 20.219 103.571 20.3466 103.991 20.446L105.205 20.7244C105.907 20.8868 106.431 21.1371 106.776 21.4751C107.12 21.8132 107.293 22.2524 107.293 22.7926C107.293 23.25 107.16 23.6577 106.895 24.0156C106.633 24.3703 106.267 24.6487 105.796 24.8509C105.329 25.053 104.787 25.1541 104.17 25.1541C103.315 25.1541 102.618 24.9718 102.077 24.6072C101.537 24.2393 101.206 23.7173 101.083 23.0412L102.52 22.8224C102.609 23.197 102.793 23.4804 103.072 23.6726C103.35 23.8615 103.713 23.956 104.161 23.956C104.648 23.956 105.037 23.8549 105.329 23.6527C105.621 23.4472 105.766 23.197 105.766 22.902C105.766 22.6634 105.677 22.4628 105.498 22.3004C105.322 22.138 105.052 22.0154 104.688 21.9325L103.395 21.6491C102.682 21.4867 102.155 21.2282 101.814 20.8736C101.476 20.5189 101.307 20.0698 101.307 19.5263C101.307 19.0755 101.433 18.6811 101.685 18.343C101.937 18.005 102.285 17.7415 102.729 17.5526C103.173 17.3603 103.682 17.2642 104.255 17.2642C105.08 17.2642 105.73 17.4432 106.204 17.8011C106.678 18.1558 106.991 18.6314 107.143 19.228ZM112.632 25V17.3636H114.069V18.5767H114.148C114.288 18.1657 114.533 17.8426 114.884 17.6072C115.239 17.3686 115.64 17.2493 116.087 17.2493C116.18 17.2493 116.29 17.2526 116.415 17.2592C116.545 17.2659 116.646 17.2741 116.719 17.2841V18.706C116.659 18.6894 116.553 18.6712 116.401 18.6513C116.248 18.6281 116.096 18.6165 115.943 18.6165C115.592 18.6165 115.279 18.6911 115.004 18.8402C114.732 18.986 114.516 19.1899 114.357 19.4517C114.198 19.7102 114.119 20.0052 114.119 20.3366V25H112.632ZM121.023 25.1541C120.271 25.1541 119.623 24.9934 119.079 24.6719C118.539 24.3471 118.121 23.8913 117.826 23.3047C117.535 22.7147 117.389 22.0237 117.389 21.2315C117.389 20.4493 117.535 19.7599 117.826 19.1634C118.121 18.5668 118.532 18.1011 119.059 17.7663C119.589 17.4316 120.209 17.2642 120.919 17.2642C121.349 17.2642 121.767 17.3355 122.171 17.478C122.576 17.6205 122.939 17.8442 123.26 18.1491C123.582 18.4541 123.835 18.8501 124.021 19.3374C124.206 19.8213 124.299 20.4096 124.299 21.1023V21.6293H118.229V20.5156H122.843C122.843 20.1245 122.763 19.7782 122.604 19.4766C122.445 19.1716 122.221 18.9313 121.933 18.7557C121.648 18.58 121.313 18.4922 120.928 18.4922C120.511 18.4922 120.146 18.5949 119.835 18.8004C119.526 19.0026 119.288 19.2678 119.119 19.5959C118.953 19.9207 118.87 20.2737 118.87 20.6548V21.5249C118.87 22.0353 118.96 22.4695 119.139 22.8274C119.321 23.1854 119.575 23.4588 119.899 23.6477C120.224 23.8333 120.604 23.9261 121.038 23.9261C121.32 23.9261 121.576 23.8864 121.808 23.8068C122.04 23.724 122.241 23.6013 122.41 23.4389C122.579 23.2765 122.708 23.076 122.798 22.8374L124.205 23.0909C124.092 23.5052 123.89 23.8681 123.598 24.1797C123.31 24.4879 122.947 24.7282 122.509 24.9006C122.075 25.0696 121.58 25.1541 121.023 25.1541ZM125.949 27.8636V17.3636H127.4V18.6016H127.525C127.611 18.4425 127.735 18.2585 127.897 18.0497C128.06 17.8409 128.285 17.6586 128.574 17.5028C128.862 17.3438 129.243 17.2642 129.717 17.2642C130.333 17.2642 130.884 17.42 131.368 17.7315C131.851 18.0431 132.231 18.4922 132.506 19.0788C132.784 19.6655 132.924 20.3714 132.924 21.1967C132.924 22.022 132.786 22.7296 132.511 23.3196C132.236 23.9062 131.858 24.3587 131.377 24.6768C130.897 24.9917 130.348 25.1491 129.732 25.1491C129.268 25.1491 128.888 25.0713 128.593 24.9155C128.302 24.7597 128.073 24.5774 127.907 24.3686C127.742 24.1598 127.614 23.9742 127.525 23.8118H127.435V27.8636H125.949ZM127.405 21.1818C127.405 21.7187 127.483 22.1894 127.639 22.5938C127.795 22.9981 128.02 23.3146 128.315 23.5433C128.61 23.7687 128.971 23.8814 129.399 23.8814C129.843 23.8814 130.214 23.7637 130.512 23.5284C130.811 23.2898 131.036 22.9666 131.189 22.5589C131.344 22.1513 131.422 21.6922 131.422 21.1818C131.422 20.678 131.346 20.2256 131.194 19.8246C131.044 19.4235 130.819 19.107 130.517 18.875C130.219 18.643 129.846 18.527 129.399 18.527C128.968 18.527 128.603 18.638 128.305 18.8601C128.01 19.0821 127.786 19.392 127.634 19.7898C127.481 20.1875 127.405 20.6515 127.405 21.1818ZM137.806 25.1541C137.09 25.1541 136.465 24.9901 135.931 24.6619C135.398 24.3338 134.984 23.8748 134.689 23.2848C134.394 22.6948 134.246 22.0054 134.246 21.2166C134.246 20.4245 134.394 19.7318 134.689 19.1385C134.984 18.5452 135.398 18.0845 135.931 17.7564C136.465 17.4283 137.09 17.2642 137.806 17.2642C138.522 17.2642 139.146 17.4283 139.68 17.7564C140.214 18.0845 140.628 18.5452 140.923 19.1385C141.218 19.7318 141.365 20.4245 141.365 21.2166C141.365 22.0054 141.218 22.6948 140.923 23.2848C140.628 23.8748 140.214 24.3338 139.68 24.6619C139.146 24.9901 138.522 25.1541 137.806 25.1541ZM137.811 23.9062C138.275 23.9062 138.659 23.7836 138.964 23.5384C139.269 23.2931 139.494 22.9666 139.64 22.5589C139.789 22.1513 139.864 21.7022 139.864 21.2116C139.864 20.7244 139.789 20.277 139.64 19.8693C139.494 19.4583 139.269 19.1286 138.964 18.88C138.659 18.6314 138.275 18.5071 137.811 18.5071C137.343 18.5071 136.956 18.6314 136.647 18.88C136.342 19.1286 136.115 19.4583 135.966 19.8693C135.82 20.277 135.748 20.7244 135.748 21.2116C135.748 21.7022 135.82 22.1513 135.966 22.5589C136.115 22.9666 136.342 23.2931 136.647 23.5384C136.956 23.7836 137.343 23.9062 137.811 23.9062Z" fill="white"/>
</svg>
